# xmcd
#
# Track frame offsets:
#	150
#	11995
#	28198
#	41882
#	58103
#	72116
#	84467
#	98832
#	112881
#	128185
#	140167
#	157396
#
# Disc length: 2288 seconds
#
# Revision: 1
# Processed by: cddbd v1.5.2PL0 Copyright (c) Steve Scherf et al.
# Submitted via: audiograbber 1.83.01
#
DISCID=b008ee0c
DTITLE=Glen Campbell - See You There
DYEAR=2013
DGENRE=Country
TTITLE0=Hey Little One
TTITLE1=Wichita Lineman
TTITLE2=Gentle on My Mind
TTITLE3=Postcard From Paris
TTITLE4=Waitin' on the Comin' of My Lord
TTITLE5=What I Wouldn't Give
TTITLE6=Galveston
TTITLE7=By the Time I Get to Phoenix
TTITLE8=There's No Me... Without You
TTITLE9=True Grit
TTITLE10=Rhinestone Cowboy
TTITLE11=Waitin' on the Comin' feat. Jose Hernandez and Mariachi Sol de Mexico 
EXTD=
EXTT0=
EXTT1=
EXTT2=
EXTT3=
EXTT4=
EXTT5=
EXTT6=
EXTT7=
EXTT8=
EXTT9=
EXTT10=
EXTT11=
PLAYORDER=
